<?xml version="1.0" encoding="UTF-8"?>
<svg width="24px" height="24px" viewBox="0 0 24 24" version="1.1" xmlns="http://www.w3.org/2000/svg" xmlns:xlink="http://www.w3.org/1999/xlink">
    <!-- Generator: Sketch 52.2 (67145) - http://www.bohemiancoding.com/sketch -->
    <title>add_list_btn</title>
    <desc>Created with Sketch.</desc>
    <g id="Page-1" stroke="none" stroke-width="1" fill="none" fill-rule="evenodd">
        <g id="Music_播放" transform="translate(-837.000000, -239.000000)">
            <g id="add_list_btn" transform="translate(837.000000, 239.000000)">
                <path d="M0,0 L16,0 C20.418278,-8.11624501e-16 24,3.581722 24,8 L24,24 L8,24 C3.581722,24 5.41083001e-16,20.418278 0,16 L0,0 Z" id="Rectangle" fill-opacity="0.9" fill="#FFFFFF" transform="translate(12.000000, 12.000000) scale(-1, 1) translate(-12.000000, -12.000000) "></path>
                <path d="M11,11 L11,7 C11,6.44771525 11.4477153,6 12,6 C12.5522847,6 13,6.44771525 13,7 L13,11 L17,11 C17.5522847,11 18,11.4477153 18,12 C18,12.5522847 17.5522847,13 17,13 L13,13 L13,17 C13,17.5522847 12.5522847,18 12,18 C11.4477153,18 11,17.5522847 11,17 L11,13 L7,13 C6.44771525,13 6,12.5522847 6,12 C6,11.4477153 6.44771525,11 7,11 L11,11 Z" id="Combined-Shape" fill="#1E1E1E"></path>
            </g>
        </g>
    </g>
</svg>