<?xml version="1.0" encoding="UTF-8"?>
<svg width="12px" height="11px" viewBox="0 0 12 11" version="1.1" xmlns="http://www.w3.org/2000/svg" xmlns:xlink="http://www.w3.org/1999/xlink">
    <!-- Generator: Sketch 52.2 (67145) - http://www.bohemiancoding.com/sketch -->
    <title>baby_ic</title>
    <desc>Created with Sketch.</desc>
    <g id="Page-1" stroke="none" stroke-width="1" fill="none" fill-rule="evenodd" opacity="0.699999988">
        <g id="Music_播放" transform="translate(-138.000000, -429.000000)" fill="#FFFFFF" fill-rule="nonzero">
            <g id="baby_ic" transform="translate(138.000000, 429.000000)">
                <path d="M11.587491,6.04127464 L11.4483638,5.88527574 L11.4483638,5.67677357 L11.4483638,5.50151089 C11.4468637,2.58134743 9.18557731,0.193771032 6.33065632,0.0166197377 L6.31528108,0.015864295 L6.19340411,0.015864295 L6.14465333,0.122759426 C5.65489544,1.19246618 4.7710062,2.00872193 3.68536371,2.3928645 L3.65573823,2.40192981 C3.56554178,2.43562028 3.46530792,2.3892837 3.43185964,2.29843417 C3.39841135,2.20758464 3.44441483,2.10662502 3.53461128,2.07293455 L3.5357363,2.07255683 C4.42928797,1.75555322 5.18325226,1.13134941 5.6650206,0.309731474 L5.67514576,0.290845409 L5.8386484,0 L5.50826808,0.0298399835 C2.72347322,0.310109196 0.564188434,2.64895955 0.545438132,5.49962228 L0.545438132,5.88527574 L0.408185921,6.04127464 C0.0263835682,6.48153921 -0.098288092,7.09120199 0.0797030931,7.64760403 C0.257694278,8.20400608 0.712284514,8.62567175 1.27744992,8.75860174 L1.2887001,8.76086807 C1.53241961,8.81842205 1.75178409,8.95223668 1.9153352,9.14312204 L1.91646022,9.14463292 C2.9211014,10.2849736 4.3798749,11 6.00440107,11 C7.62892724,11 9.08770073,10.2849736 10.0870918,9.15029874 L10.0919669,9.14463292 C10.2520945,8.95879404 10.4654729,8.82356981 10.7081018,8.76275668 L10.716352,8.76086807 C11.4569889,8.58484994 11.9999976,7.92497081 11.9999976,7.13704416 C12.0006803,6.7301332 11.8527952,6.33717459 11.584491,6.03296477 L11.585991,6.03485338 L11.587491,6.04127464 Z M2.8899759,4.51528054 C2.8899759,4.22489581 3.12368702,3.98949248 3.41198431,3.98949248 C3.70028159,3.98949248 3.93399272,4.22489581 3.93399272,4.51528054 C3.93399272,4.80566527 3.70028159,5.04106861 3.41198431,5.04106861 C3.12441954,5.0400282 2.89184907,4.80492932 2.89185093,4.51528054 L2.8899759,4.51528054 Z M6.000276,9.07059955 C4.53737744,9.07059955 3.39098397,8.36992652 3.39098397,7.49361308 C3.39098397,7.39681817 3.46888768,7.31835039 3.56498677,7.31835039 C3.66108587,7.31835039 3.73898957,7.39681817 3.73898957,7.49361308 C3.73898957,8.08588009 4.6468792,8.72007417 6.000276,8.72007417 C7.3536728,8.72007417 8.26156243,8.08588009 8.26156243,7.49361308 C8.26156243,7.39681817 8.33946614,7.31835039 8.43556523,7.31835039 C8.53166432,7.31835039 8.60956803,7.39681817 8.60956803,7.49361308 C8.61144306,8.37823638 7.4650496,9.07059955 6.00215103,9.07059955 L6.000276,9.07059955 Z M8.63056837,5.04106861 C8.34227109,5.04106861 8.10855996,4.80566527 8.10855996,4.51528054 C8.10855996,4.22489581 8.34227109,3.98949248 8.63056837,3.98949248 C8.91886565,3.98949248 9.15257678,4.22489581 9.15257678,4.51528054 C9.15257678,4.80499279 8.92007303,5.03993544 8.6324434,5.04106861 L8.63056837,5.04106861 Z" id="Shape"></path>
            </g>
        </g>
    </g>
</svg>