<?xml version="1.0" encoding="UTF-8"?>
<svg width="12px" height="14px" viewBox="0 0 12 14" version="1.1" xmlns="http://www.w3.org/2000/svg" xmlns:xlink="http://www.w3.org/1999/xlink">
    <!-- Generator: Sketch 52.2 (67145) - http://www.bohemiancoding.com/sketch -->
    <title>chinese_ic</title>
    <desc>Created with Sketch.</desc>
    <g id="Page-1" stroke="none" stroke-width="1" fill="none" fill-rule="evenodd" opacity="0.699999988">
        <g id="Music_播放" transform="translate(-138.000000, -212.000000)" fill="#FFFFFF" fill-rule="nonzero">
            <g id="chinese_ic" transform="translate(138.000000, 212.000000)">
                <path d="M8.07681689,1.33049299 C8.05872253,1.33049299 8.04062816,1.32927571 8.02253381,1.32562387 C7.84934494,1.2976263 7.7317316,1.14303105 7.76145805,0.978697508 C7.76404295,0.961655516 7.76662787,0.943396234 7.76662787,0.925136939 C7.76662787,0.74619598 7.61282581,0.601339006 7.42283505,0.60133902 L4.58460555,0.60133902 C4.39461478,0.60133902 4.24081272,0.746195994 4.24081273,0.925136939 C4.24081273,1.09068776 4.09864277,1.22580645 3.92157654,1.22580645 C3.74580276,1.22580645 3.60234034,1.09190505 3.60234034,0.925136939 C3.60234034,0.41509434 4.04306723,-1.42108547e-14 4.58460555,-1.42108547e-14 L7.42283505,-1.42108547e-14 C7.96437337,-1.42108547e-14 8.40510026,0.41509434 8.40510026,0.925136939 C8.40510026,0.977480219 8.39993045,1.02860621 8.39088327,1.0797322 C8.36374172,1.22702374 8.22932649,1.33049299 8.07681689,1.33049299 Z M7.42283505,10.4893487 L4.58460555,10.4893487 C4.04306723,10.4893487 3.60234034,10.0742544 3.60234034,9.56421181 C3.60234034,9.51308582 3.60751015,9.46074254 3.61655733,9.40961655 C3.64628378,9.24650029 3.81042546,9.13572732 3.98361433,9.1637249 C4.15680321,9.19172246 4.27441654,9.34631771 4.24469009,9.51065125 C4.24210519,9.52891054 4.23952028,9.54595253 4.23952028,9.56421181 C4.23952028,9.74315277 4.39332234,9.88800974 4.5833131,9.88800974 L7.4215426,9.88800974 C7.61153336,9.88800974 7.76533542,9.74315277 7.76533542,9.56421181 C7.76533542,9.39866099 7.90750539,9.2635423 8.08457161,9.2635423 C8.26034538,9.2635423 8.40380781,9.3974437 8.40380781,9.56421181 C8.40510026,10.0742544 7.96437337,10.4893487 7.42283505,10.4893487 Z" id="Shape"></path>
                <path d="M7.42541995,9.57151552 L4.58202065,9.57151552 C3.36452876,9.57151552 2.2168294,9.12233718 1.35088507,8.30553865 C0.484940732,7.48874012 0.00673267092,6.40900791 0.00673265636,5.26232502 C0.00673265636,4.11564212 0.483648274,3.03469264 1.35088507,2.21911138 C2.2168294,1.40353013 3.36452876,0.953134519 4.58202065,0.953134506 L7.4241275,0.953134506 C8.64161938,0.953134506 9.78931874,1.40231284 10.6552631,2.21911138 C11.5212074,3.03590993 11.9994155,4.11564212 11.9994155,5.26232502 C11.9994155,6.40900791 11.5224999,7.4899574 10.6552631,8.30553865 C9.7906112,9.12233719 8.64291184,9.57151552 7.42541995,9.57151552 Z M6.00372029,8.1679854 C6.17949407,8.1679854 6.32295649,8.034084 6.32295649,7.86731589 L6.32295649,2.54534388 C6.32295649,2.37857577 6.18078651,2.24467437 6.00372029,2.24467437 C5.82665408,2.24467437 5.68448411,2.37979306 5.68448411,2.54534388 L5.68448411,7.86731589 C5.6844841,8.034084 5.82794652,8.1679854 6.00372029,8.1679854 Z M3.69151968,7.93548387 C3.74063294,7.93548387 3.7897462,7.92452829 3.83627455,7.90261716 C3.99395397,7.82714547 4.05469932,7.64576993 3.97456716,7.49847839 C3.4226892,6.48691418 3.24562297,5.44735241 3.44983074,4.40900791 C3.60234034,3.62872794 3.9254539,3.13937918 3.92933125,3.13451004 C4.02368042,2.99452222 3.98102943,2.80949483 3.83239719,2.72063299 C3.68376495,2.63177115 3.48601946,2.67194156 3.3916703,2.81192939 C3.37616084,2.83505782 3.00781138,3.38405356 2.82816025,4.27023737 C2.72347145,4.78758369 2.70279218,5.31588557 2.76870735,5.84175289 C2.85013198,6.49543519 3.06467938,7.14546562 3.40717975,7.77236763 C3.46404773,7.87583688 3.5751988,7.93548387 3.69151968,7.93548387 Z M8.31592092,7.93548387 C8.4322418,7.93548388 8.54339286,7.8758369 8.59896839,7.77236763 C8.94146876,7.14546561 9.15601618,6.49665246 9.23744079,5.84175289 C9.30335595,5.31710286 9.28267669,4.78758369 9.17798789,4.27023737 C8.99833676,3.38405356 8.6299873,2.83505782 8.61447785,2.81192939 C8.51883624,2.67194158 8.32238319,2.63177115 8.17375095,2.72063299 C8.02511873,2.81071211 7.98246773,2.9957395 8.07681689,3.13572733 C8.08974143,3.1552039 9.35634657,5.07242848 8.03158099,7.49847839 C7.95144883,7.64576993 8.01348663,7.82714546 8.16987359,7.90261716 C8.2176944,7.92452829 8.26680766,7.93548387 8.31592092,7.93548387 Z" id="Combined-Shape"></path>
                <path d="M6.00372029,14 C5.82794652,14 5.6844841,13.8660986 5.68448411,13.6993305 L5.68448411,10.5173463 C5.68448411,10.3517955 5.82665408,10.2166768 6.00372029,10.2166768 C6.18078651,10.2166768 6.32295649,10.3505782 6.32295649,10.5173463 L6.32295649,13.7005478 C6.32295649,13.8660986 6.17949407,14 6.00372029,14 Z M7.43834449,13.3998783 C7.26257072,13.3998783 7.11910829,13.2659769 7.11910831,13.0992088 L7.11910831,10.5173463 C7.11910831,10.3517955 7.26127827,10.2166768 7.43834449,10.2166768 C7.61541071,10.2166768 7.75758069,10.3505782 7.75758069,10.5173463 L7.75758069,13.100426 C7.75758069,13.2659769 7.61411827,13.3998783 7.43834449,13.3998783 Z M4.56909611,13.3998783 C4.39332234,13.3998783 4.24985991,13.2659769 4.24985991,13.0992088 L4.24985991,10.5173463 C4.24985991,10.3517955 4.39202988,10.2166768 4.56909611,10.2166768 C4.74486988,10.2166768 4.88833231,10.3505782 4.88833229,10.5173463 L4.88833229,13.100426 C4.88833229,13.2659769 4.74486987,13.3998783 4.56909611,13.3998783 Z" id="Shape"></path>
            </g>
        </g>
    </g>
</svg>