<?xml version="1.0" encoding="UTF-8"?>
<svg width="24px" height="24px" viewBox="0 0 24 24" version="1.1" xmlns="http://www.w3.org/2000/svg" xmlns:xlink="http://www.w3.org/1999/xlink">
    <!-- Generator: Sketch 52.2 (67145) - http://www.bohemiancoding.com/sketch -->
    <title>close_btn</title>
    <desc>Created with Sketch.</desc>
    <g id="Page-1" stroke="none" stroke-width="1" fill="none" fill-rule="evenodd">
        <g id="Music_播放列表" transform="translate(-1055.000000, -88.000000)">
            <g id="close_btn" transform="translate(1055.000000, 88.000000)">
                <path d="M0,0 L16,0 C20.418278,-8.11624501e-16 24,3.581722 24,8 L24,24 L8,24 C3.581722,24 5.41083001e-16,20.418278 0,16 L0,0 Z" id="Rectangle" fill-opacity="0.5" fill="#000000"></path>
                <path d="M10.4852814,10.4852814 L10.4852814,6.48528137 C10.4852814,5.93299662 10.9329966,5.48528137 11.4852814,5.48528137 C12.0375661,5.48528137 12.4852814,5.93299662 12.4852814,6.48528137 L12.4852814,10.4852814 L16.4852814,10.4852814 C17.0375661,10.4852814 17.4852814,10.9329966 17.4852814,11.4852814 C17.4852814,12.0375661 17.0375661,12.4852814 16.4852814,12.4852814 L12.4852814,12.4852814 L12.4852814,16.4852814 C12.4852814,17.0375661 12.0375661,17.4852814 11.4852814,17.4852814 C10.9329966,17.4852814 10.4852814,17.0375661 10.4852814,16.4852814 L10.4852814,12.4852814 L6.48528137,12.4852814 C5.93299662,12.4852814 5.48528137,12.0375661 5.48528137,11.4852814 C5.48528137,10.9329966 5.93299662,10.4852814 6.48528137,10.4852814 L10.4852814,10.4852814 Z" id="Combined-Shape" fill="#FFFFFF" transform="translate(11.485281, 11.485281) rotate(45.000000) translate(-11.485281, -11.485281) "></path>
            </g>
        </g>
    </g>
</svg>