<?xml version="1.0" encoding="UTF-8"?>
<svg width="16px" height="14px" viewBox="0 0 16 14" version="1.1" xmlns="http://www.w3.org/2000/svg" xmlns:xlink="http://www.w3.org/1999/xlink">
    <!-- Generator: Sketch 52.2 (67145) - http://www.bohemiancoding.com/sketch -->
    <title>collect_btn</title>
    <desc>Created with Sketch.</desc>
    <g id="Page-1" stroke="none" stroke-width="1" fill="none" fill-rule="evenodd">
        <g id="Music_歌曲列表" transform="translate(-339.000000, -209.000000)" fill-rule="nonzero" stroke="#FFFFFF">
            <path d="M350.502666,209.5 C349.297623,209.5 348.158138,210.067217 347.3923,211.036372 L346.997859,211.53553 L346.606065,211.034292 C345.852065,210.06967 344.705409,209.5 343.497146,209.5 C341.296561,209.5 339.5,211.350297 339.5,213.629384 C339.5,214.753063 339.834393,215.500445 340.718694,216.802308 C341.427957,217.8527 342.679291,219.114747 344.253317,220.454673 C345.232805,221.288484 346.267643,222.087429 346.725923,222.411318 C346.801611,222.468314 346.898377,222.500174 347.00086,222.499999 C347.101516,222.500172 347.198178,222.468335 347.286444,222.402144 C347.707065,222.105464 348.762862,221.287498 349.742825,220.451727 C351.315768,219.110226 352.568599,217.848274 353.281979,216.801037 C354.165112,215.501768 354.5,214.753273 354.5,213.629384 C354.5,211.350271 352.703414,209.5 350.502666,209.5 Z" id="collect_btn"></path>
        </g>
    </g>
</svg>