<?xml version="1.0" encoding="UTF-8"?>
<svg width="16px" height="14px" viewBox="0 0 16 14" version="1.1" xmlns="http://www.w3.org/2000/svg" xmlns:xlink="http://www.w3.org/1999/xlink">
    <!-- Generator: Sketch 52.2 (67145) - http://www.bohemiancoding.com/sketch -->
    <title>collect_btn_s</title>
    <desc>Created with Sketch.</desc>
    <g id="Page-1" stroke="none" stroke-width="1" fill="none" fill-rule="evenodd">
        <g id="Music_歌曲列表" transform="translate(-339.000000, -246.000000)" fill="#EF2E27" fill-rule="nonzero">
            <path d="M350.502666,246 C349.125361,246 347.84825,246.652925 347,247.726371 C346.160938,246.652925 344.874639,246 343.497146,246 C341.015962,246 339,248.078537 339,250.629384 C339,252.149526 339.720866,253.223163 340.304316,254.082111 C341.992019,256.581537 346.242725,259.681922 346.425145,259.810733 C346.588295,259.933593 346.791087,260.00036 347,259.999999 C347.208846,260.000358 347.411568,259.933588 347.574636,259.810733 C347.757259,259.681922 351.998777,256.572886 353.695497,254.082111 C354.279337,253.223163 355,252.149526 355,250.629384 C355,248.078537 352.984038,246 350.502666,246 Z" id="collect_btn_s"></path>
        </g>
    </g>
</svg>