<?xml version="1.0" encoding="UTF-8"?>
<svg width="12px" height="12px" viewBox="0 0 12 12" version="1.1" xmlns="http://www.w3.org/2000/svg" xmlns:xlink="http://www.w3.org/1999/xlink">
    <!-- Generator: Sketch 52.2 (67145) - http://www.bohemiancoding.com/sketch -->
    <title>deepsleep_ic</title>
    <desc>Created with Sketch.</desc>
    <g id="Page-1" stroke="none" stroke-width="1" fill="none" fill-rule="evenodd" opacity="0.699999988">
        <g id="Music_播放" transform="translate(-139.000000, -464.000000)" fill="#FFFFFF">
            <g id="deepsleep_ic" transform="translate(139.000000, 464.000000)">
                <g id="Group-7">
                    <path d="M5.03180942,-1.25502941e-11 C4.67838562,0.757784989 4.48173477,1.59839174 4.48173477,2.48333024 C4.48173477,5.82800075 7.29089384,8.53939191 10.7561672,8.53939191 C11.1820189,8.53939191 11.5979618,8.49844379 12,8.42040439 C11.6915401,9.08462739 11.2569614,9.69562009 10.7083634,10.2254724 C9.53377494,11.3651559 7.93645637,12.0040364 6.27177737,11.9999765 C4.60745789,12.0044625 3.01044881,11.3654867 1.83671241,10.2254724 C0.657260906,9.09099399 -0.00400619316,7.54816616 1.82625073e-05,5.94021035 C1.82625073e-05,3.01685325 2.14729253,0.557372858 5.03180942,9.49865187e-13 Z" id="Combined-Shape" fill-rule="nonzero"></path>
                    <polygon id="z" points="7 3.98046875 8.77734375 1.62890625 7.09570312 1.62890625 7.09570312 1 9.64550781 1 9.64550781 1.56738281 7.86816406 3.87451172 9.64550781 3.87451172 9.64550781 4.54785156 7 4.54785156"></polygon>
                </g>
            </g>
        </g>
    </g>
</svg>