<?xml version="1.0" encoding="UTF-8"?>
<svg width="128px" height="90px" viewBox="0 0 128 90" version="1.1" xmlns="http://www.w3.org/2000/svg" xmlns:xlink="http://www.w3.org/1999/xlink">
    <!-- Generator: Sketch 52.2 (67145) - http://www.bohemiancoding.com/sketch -->
    <title>deep_sleep_ic</title>
    <desc>Created with Sketch.</desc>
    <g id="Page-1" stroke="none" stroke-width="1" fill="none" fill-rule="evenodd">
        <g id="FM-选择-Sleep" transform="translate(-720.000000, -337.000000)" fill="#FFFFFF">
            <g id="deep_sleep_ic" transform="translate(720.000000, 337.000000)">
                <g id="睡觉" transform="translate(0.000000, 16.000000)">
                    <path d="M117.511595,57.9893732 L117.511595,74 L128,74 L128,48.1643161 L10.4372378,48.1643161 L10.4372378,5.24293189 C10.4372378,2.35017231 8.11557193,-2.14731011e-13 5.1980394,-2.14731011e-13 C2.31140736,-2.14731011e-13 -8.0768725e-15,2.35017231 -8.0768725e-15,5.24293189 L-8.0768725e-15,74 L10.4372378,74 L10.4372378,57.9893732 L117.511595,57.9893732 Z" id="Path"></path>
                    <path d="M25.5,33 C30.7457112,33 35,28.7699544 35,23.4743046 C35,18.2251333 30.7455855,14 25.5,14 C20.2441029,14 16,18.2250073 16,23.4743046 C16,28.7698284 20.2439772,33 25.5,33" id="Path"></path>
                    <path d="M127,43 L126.969185,30.2873959 C126.92843,26.2571785 123.510072,23.4818659 119.490573,23 L38.5690297,23 L38.5690297,33.9160585 L17.6321967,33.9160585 C15.0610045,33.9160585 13,35.9587933 13,38.4580904 C13,40.9875805 15.0610045,43 17.6321967,43 L127,43 Z" id="Path"></path>
                </g>
                <g id="睡觉-(1)" transform="translate(97.000000, 0.000000)" fill-rule="nonzero">
                    <path d="M21.8534249,3.73144188 L22.8019062,3.43465898 C22.8513044,3.41913311 22.9056295,3.43137967 22.9425873,3.46637286 C22.9795451,3.50136605 22.9929119,3.553213 22.9772021,3.60063648 L22.1803198,6.02053628 C22.1755097,6.03637796 22.1738606,6.05294465 22.1754589,6.06937028 C22.1761971,6.09203365 22.1746712,6.11471268 22.1709018,6.13709841 C22.1569007,6.20547495 22.1597089,6.27602989 22.1791046,6.34318958 C22.2520179,6.55751663 22.4307569,6.63067076 22.7153216,6.56265195 L22.7265624,6.55945451 L25.1366528,5.80543407 L25.1481974,5.80136458 C25.4155464,5.69672026 25.515701,5.51058903 25.4486612,5.24297087 C25.446624,5.23532961 25.4439834,5.22784736 25.4407622,5.22058862 C25.3297719,4.96711683 25.1341211,4.8736152 24.8538097,4.94008373 L24.8419613,4.94328118 L23.723045,5.29354896 C23.6737264,5.30901195 23.6195118,5.29686583 23.5824954,5.26206052 C23.5454789,5.2272552 23.5318418,5.17560262 23.5471415,5.12815281 L24.3461504,2.65331476 C24.3900672,2.54736919 24.3940418,2.43009571 24.3573912,2.32165042 C24.2966301,2.14433644 24.1526262,2.08029024 23.9253796,2.12951183 C23.9206466,2.13050375 23.91598,2.13176561 23.9114045,2.13329064 L21.5590372,2.86928899 L21.5474926,2.8733585 C21.2801436,2.97858418 21.179989,3.16471541 21.2470288,3.43175218 C21.2489176,3.43930434 21.251458,3.44669354 21.2546239,3.45384376 C21.3652092,3.70770312 21.5609613,3.80130165 21.8418803,3.73463935 L21.8534249,3.73144188 Z M18.0032957,19.3443737 C12.241925,19.5091885 7.47642931,15.0010533 7.58610317,9.48716991 C7.66418123,5.55748519 10.190933,2.20189082 13.7670295,0.758089927 C14.180509,0.591240391 14.0589867,0 13.6111772,0 L13.5886955,0 C6.1305702,0 0.0763308697,5.74817037 0.000683252638,12.8663093 C-0.0749643644,20.1114747 6.14089961,26.0651549 13.7132559,25.9994615 C20.4045757,25.9413258 25.9402188,21.2555859 26.9938168,15.1248824 C27.0664263,14.701945 26.4803852,14.4853894 26.2403788,14.8481563 C24.4992685,17.4758913 21.4706298,19.2452523 18.0032957,19.3443737 Z M17.2173504,9.72785182 L19.0739069,9.14649452 C19.1233861,9.13098965 19.177773,9.14327475 19.2147804,9.1783155 C19.2517877,9.21335626 19.2651944,9.26526216 19.2495065,9.31276271 L17.7888089,13.7473563 C17.7827928,13.7666652 17.7811359,13.7869772 17.783948,13.8069454 C17.7873024,13.8501615 17.7850575,13.8936086 17.7772643,13.9362974 C17.754175,14.0830901 17.7593397,14.2028497 17.7915431,14.2970296 C17.9201542,14.6727802 18.2340867,14.8003881 18.7333407,14.6798534 C18.7369701,14.6791957 18.7405292,14.6782227 18.7439739,14.6769466 L22.9708222,13.3543587 L22.9814554,13.3505799 C23.4559998,13.1664834 23.6320046,12.8370476 23.5094696,12.3622725 C23.5076025,12.3551626 23.5052687,12.3481725 23.5024821,12.3413436 C23.3080465,11.889629 22.9626194,11.7233608 22.466201,11.842539 L22.4549601,11.8457365 L20.3009779,12.5195296 C20.2516986,12.5348468 20.1976053,12.5226344 20.1606806,12.4878552 C20.1237559,12.4530761 20.1101446,12.4015181 20.1253783,12.3541335 L21.5836455,7.83931261 C21.6608939,7.65366177 21.6678793,7.44801349 21.6033928,7.25795531 C21.4968583,6.94576643 21.242978,6.83404893 20.841752,6.92280282 L20.8283846,6.92629096 L16.7017922,8.2192296 L16.6908552,8.22300844 C16.2165133,8.40788007 16.0405085,8.73731588 16.162841,9.21131585 C16.1646754,9.21837502 16.1671141,9.22527773 16.1701323,9.23195405 C16.3637578,9.68386247 16.7091848,9.85013066 17.2064134,9.73075862 L17.2173504,9.72785182 Z" id="Shape"></path>
                </g>
            </g>
        </g>
    </g>
</svg>