<?xml version="1.0" encoding="UTF-8"?>
<svg width="68px" height="95px" viewBox="0 0 68 95" version="1.1" xmlns="http://www.w3.org/2000/svg" xmlns:xlink="http://www.w3.org/1999/xlink">
    <!-- Generator: Sketch 52.2 (67145) - http://www.bohemiancoding.com/sketch -->
    <title>focus_ic</title>
    <desc>Created with Sketch.</desc>
    <g id="Page-1" stroke="none" stroke-width="1" fill="none" fill-rule="evenodd">
        <g id="FM-选择" transform="translate(-250.000000, -337.000000)" fill="#FFFFFF" fill-rule="nonzero">
            <g id="focus_ic" transform="translate(250.000000, 337.000000)">
                <path d="M17.8573126,26.5716695 C16.7818937,18.4135236 16.6686917,10.8658511 17.8007116,4.09514494 C32.8565774,-5.94991914 39.9883033,5.87106787 51.4783062,4.09514494 C52.3839222,11.1433391 52.0443162,20.6334272 50.9688972,26.238684 C50.2896852,29.9570226 48.7048572,33.2868781 46.4974182,35.9507625 C43.3843633,39.6691012 39.1392883,42 34.3848044,42 C29.6303205,42 25.3286445,39.6691012 22.2721906,35.9507625 C20.1213526,33.3978733 18.5931256,30.179013 17.8573126,26.5716695 Z M10,91 L59,91 L56.0979499,95 L12.3997722,95 L10,91 Z M61.7460714,54.5238095 L67.1633576,74.8145363 C69.0622002,81.9273183 68.1686272,87 59.8472288,87 L58.0042346,87 L58.0042346,59.1002506 L36,59.1002506 L42.3108592,44.764411 L44.6006399,43 L56.998965,46.0325815 L57.6132964,46.197995 L58.0042346,46.6942356 C59.8472288,49.0651629 61.0200434,51.7117794 61.6343748,54.5789474 L61.7460714,54.5238095 Z M11.57811,87 L8.19570631,87 C-0.14755611,87 -1.04953043,81.9209536 0.8107916,74.7992472 L6.27901089,54.4830615 C7.01186502,51.1154329 8.59032008,48.4654956 10.8452559,46.4228356 L11.1834962,46.1468005 L11.6344834,46.0363864 L23.6983899,43 L26.0660724,44.7666248 L33,59.1204517 L11.57811,59.1204517 L11.57811,87 Z" id="Shape"></path>
            </g>
        </g>
    </g>
</svg>