<?xml version="1.0" encoding="UTF-8"?>
<svg width="48px" height="44px" viewBox="0 0 48 44" version="1.1" xmlns="http://www.w3.org/2000/svg" xmlns:xlink="http://www.w3.org/1999/xlink">
    <!-- Generator: Sketch 52.2 (67145) - http://www.bohemiancoding.com/sketch -->
    <title>headset_ic</title>
    <desc>Created with Sketch.</desc>
    <g id="Page-1" stroke="none" stroke-width="1" fill="none" fill-rule="evenodd" opacity="0.900000036">
        <g id="FM-选择" transform="translate(-576.000000, -108.000000)" fill="#FFFFFF" fill-rule="nonzero">
            <g id="headset_ic" transform="translate(576.000000, 108.000000)">
                <path d="M23.999946,0 C10.7451187,0 0,10.7952521 0,24.1118681 L0,34.0809681 C0,39.5364465 4.44282468,44 9.87296765,44 C15.3031107,44 19.7459353,39.5364465 19.7459353,34.0809681 L19.7459353,29.6928153 C19.7459353,24.2373369 15.3031106,19.7737834 9.87296765,19.7737834 C7.92073809,19.7737834 6.09614823,20.3507337 4.55971975,21.3432553 C5.14597717,17.1251064 7.06764664,13.2294985 10.1179345,10.1650332 C13.8259666,6.4397005 18.7560253,4.38809866 24,4.38809866 C29.2439747,4.38809866 34.1740334,6.4397005 37.8820655,10.1650332 C40.9322993,13.2294985 42.8540228,17.1250521 43.4402802,21.3432553 C41.9038517,20.3507336 40.0792619,19.7737834 38.1270323,19.7737834 C32.6968893,19.7737834 28.2540646,24.2373369 28.2540646,29.6928153 L28.2540646,34.0809681 C28.2540646,39.5364465 32.6968893,44 38.1270323,44 C43.5571753,44 47.9999999,39.5364465 47.9999999,34.0809681 L48,24.1118681 C47.999892,10.7952521 37.2547193,0 23.999946,0 Z M5.6193827,25.5810678 C6.66358543,24.5614658 8.041795,24 9.5,24 C10.9581511,24 12.3363606,24.5614658 13.3806173,25.5810678 C14.4249279,26.6005645 15,27.9461654 15,29.3698164 L15,33.6301836 C15,35.0538346 14.4249279,36.3993828 13.3806173,37.4189848 C12.3364146,38.4384815 10.958205,39 9.5,39 C8.04184892,39 6.66363935,38.4384815 5.6193827,37.4189848 C4.57507207,36.3993828 4,35.0538872 4,33.6301836 L4,29.3698164 C3.99999995,27.9461654 4.57507207,26.6006172 5.6193827,25.5810678 Z M44,33.6301836 C44,35.0538346 43.4249279,36.3993828 42.3806173,37.4189848 C41.3364146,38.4384815 39.958205,39 38.5,39 C37.0418489,39 35.6636394,38.4384815 34.6193827,37.4189848 C33.5750721,36.3993828 33,35.0538872 33,33.6301836 L33,29.3698164 C33,27.9461654 33.5750721,26.6005645 34.6193827,25.5810678 C35.6635854,24.5614658 37.041795,24 38.5,24 C39.9581511,24 41.3363606,24.5614658 42.3806173,25.5810678 C43.4249279,26.6005645 44,27.9461654 44,29.3698164 L44,33.6301836 Z" id="Shape"></path>
            </g>
        </g>
    </g>
</svg>