<?xml version="1.0" encoding="UTF-8"?>
<svg width="14px" height="14px" viewBox="0 0 14 14" version="1.1" xmlns="http://www.w3.org/2000/svg" xmlns:xlink="http://www.w3.org/1999/xlink">
    <!-- Generator: Sketch 52.2 (67145) - http://www.bohemiancoding.com/sketch -->
    <title>home_ic</title>
    <desc>Created with Sketch.</desc>
    <g id="Page-1" stroke="none" stroke-width="1" fill="none" fill-rule="evenodd">
        <g id="Music_播放" transform="translate(-137.000000, -139.000000)" fill="#FFFFFF" fill-rule="nonzero">
            <g id="home_ic" transform="translate(137.000000, 139.000000)">
                <path d="M13.6488916,5.92982456 L12.0803267,4.3859649 L8.0087326,0.456140347 C7.74174283,0.1754386 7.34125816,0 6.94077349,0 C6.54028882,0 6.13980417,0.1754386 5.87281438,0.456140347 L0.366150244,5.92982456 C-0.101081868,6.42105263 -0.000960696773,6.80701754 0.0324130318,6.91228069 C0.0991604742,7.08771929 0.266029088,7.2982456 0.666513742,7.2982456 L1.46748308,7.2982456 C1.66772541,7.2982456 1.80122031,7.4736842 1.80122029,7.6491228 L1.80122029,12.3157895 C1.80122029,13.122807 2.33519985,14 3.20291663,14 L10.7453778,14 C11.6130946,14 12.1470741,13.122807 12.1470741,12.3157895 L12.1470741,7.68421053 C12.1470741,7.47368422 12.3139427,7.33333333 12.4808113,7.33333333 L13.2817807,7.33333333 C13.6822653,7.33333333 13.8491339,7.12280702 13.9158814,6.91228069 C14.0160026,6.80701753 14.1161237,6.45614035 13.6488916,5.92982456 Z M9.14343915,11.8947368 C9.14343915,12.3508772 8.80970192,12.7017544 8.37584354,12.7017544 L5.67257206,12.7017544 C5.23871367,12.7017544 4.90497645,12.3157895 4.90497645,11.8947368 L4.90497645,8 C4.90497645,7.54385965 5.23871367,7.19298246 5.67257206,7.19298246 L8.37584354,7.19298246 C8.80970192,7.19298246 9.14343915,7.57894737 9.14343915,8 L9.14343915,11.8947368 Z" id="Shape"></path>
            </g>
        </g>
    </g>
</svg>