<?xml version="1.0" encoding="UTF-8"?>
<svg width="10px" height="14px" viewBox="0 0 10 14" version="1.1" xmlns="http://www.w3.org/2000/svg" xmlns:xlink="http://www.w3.org/1999/xlink">
    <!-- Generator: Sketch 52.2 (67145) - http://www.bohemiancoding.com/sketch -->
    <title>meditation_ic</title>
    <desc>Created with Sketch.</desc>
    <g id="Page-1" stroke="none" stroke-width="1" fill="none" fill-rule="evenodd" opacity="0.699999988">
        <g id="Music_播放" transform="translate(-139.000000, -499.000000)" fill="#FFFFFF" fill-rule="nonzero">
            <g id="meditation_ic" transform="translate(139.000000, 499.000000)">
                <path d="M10,5.23183391 C10,2.32525952 7.76923078,0 5,0 C2.23076922,0 0,2.32525952 0,5.23183391 C0,7.01453288 0.884615388,8.60346021 2.1923077,9.57231834 C2.1923077,9.57231834 2.46153848,9.76608996 2.38461539,9.99861592 C2.38461539,10.0761246 2.34615385,10.1148789 2.38461539,10.1923875 C2.42307693,10.4636678 2.65384616,10.6961938 2.92307693,10.6961938 L2.96153846,10.6961938 L5.46153846,10.4249135 L5.61538461,10.4249135 L7.03846154,10.2698962 C7.23076922,10.2311419 7.38461539,10.1148789 7.46153846,9.92110726 C7.5,9.80484429 7.65384615,9.68858131 7.76923078,9.61107267 C7.80769231,9.57231834 7.84615385,9.57231834 7.84615385,9.53356402 C9.11538463,8.60346021 10,7.01453288 10,5.23183391 Z M4.11538461,2.67404844 C3.73076922,2.71280276 3.38461539,2.94532872 3.07692307,3.33287198 C2.76923076,3.68166091 2.57692307,4.14671281 2.5,4.57301038 C2.46153846,4.80553633 2.26923078,4.96055364 2.07692307,4.96055364 L2,4.96055364 C1.76923078,4.92179931 1.57692307,4.68927335 1.61538461,4.41799308 C1.69230769,3.79792388 1.96153846,3.17785468 2.38461539,2.71280276 C2.84615385,2.17024221 3.38461539,1.8602076 3.96153846,1.78269897 C4.19230769,1.74394464 4.42307693,1.93771627 4.46153846,2.17024221 C4.5,2.40276816 4.34615385,2.63529412 4.11538461,2.67404844 Z M7.07692307,10.9287197 L3,11.3937716 C2.69230769,11.4325259 2.5,11.7038062 2.53846154,12.0138408 C2.57692307,12.2851211 2.80769231,12.5176471 3.07692307,12.5176471 L3.11538461,12.5176471 L7.15384615,12.0913495 C7.46153846,12.0525952 7.65384615,11.7813149 7.61538461,11.4712803 C7.61538461,11.1224914 7.34615384,10.9287197 7.07692307,10.9287197 Z M3.61538461,13.1377163 C3.57692307,13.1377163 3.57692307,13.1764706 3.57692307,13.2152249 C3.57692307,13.2539792 3.61538461,13.2927336 3.65384615,13.2927336 L4.6923077,13.9128028 C4.88461539,14.0290657 5.15384616,14.0290657 5.34615385,13.9128028 L7.15384615,12.866436 C7.15384615,12.866436 7.23076922,12.8276817 7.19230769,12.7889273 C7.19230769,12.750173 7.15384615,12.750173 7.15384615,12.750173 L3.61538461,13.1377163 Z" id="Shape"></path>
            </g>
        </g>
    </g>
</svg>