<?xml version="1.0" encoding="UTF-8"?>
<svg width="28px" height="32px" viewBox="0 0 28 32" version="1.1" xmlns="http://www.w3.org/2000/svg" xmlns:xlink="http://www.w3.org/1999/xlink">
    <!-- Generator: Sketch 52.2 (67145) - http://www.bohemiancoding.com/sketch -->
    <title>mute_btn</title>
    <desc>Created with Sketch.</desc>
    <g id="Page-1" stroke="none" stroke-width="1" fill="none" fill-rule="evenodd" opacity="0.699999988">
        <g id="Music_播放列表" transform="translate(-1008.000000, -702.000000)" fill="#FFFFFF" fill-rule="nonzero">
            <g id="mute_btn" transform="translate(1008.000000, 702.000000)">
                <path d="M20,12.6984848 L20,28.8007874 C20,32.0569343 17.0765847,32.9209733 15.1529694,30.9608849 L8.89422113,24.0085713 L8.68991355,24.0085713 L2.12132034,30.5771645 C1.73079605,30.9676888 1.09763107,30.9676888 0.707106781,30.5771645 C0.316582489,30.1866402 0.316582489,29.5534752 0.707106781,29.1629509 L26.1629509,3.70710678 C26.5534752,3.31658249 27.1866402,3.31658249 27.5771645,3.70710678 C27.9676888,4.09763107 27.9676888,4.73079605 27.5771645,5.12132034 L20,12.6984848 Z M20,6.87005769 L3.53995266,23.330105 C1.44616898,22.2588591 -2.84217094e-14,20.0326822 -2.84217094e-14,17.4762766 L-2.84217094e-14,14.5281436 C-2.84217094e-14,10.9359815 2.85942811,7.99584893 6.35072986,7.99584893 L8.88222355,7.99584893 L15.1529694,1.0275346 C17.0365927,-0.888551834 20,-0.100516282 20,3.18763205 L20,6.87005769 Z" id="Combined-Shape"></path>
            </g>
        </g>
    </g>
</svg>