<?xml version="1.0" encoding="UTF-8"?>
<svg width="14px" height="14px" viewBox="0 0 14 14" version="1.1" xmlns="http://www.w3.org/2000/svg" xmlns:xlink="http://www.w3.org/1999/xlink">
    <!-- Generator: Sketch 52.2 (67145) - http://www.bohemiancoding.com/sketch -->
    <title>nature_ic</title>
    <desc>Created with Sketch.</desc>
    <g id="Page-1" stroke="none" stroke-width="1" fill="none" fill-rule="evenodd" opacity="0.699999988">
        <g id="Music_播放" transform="translate(-137.000000, -354.000000)" fill="#FFFFFF" fill-rule="nonzero">
            <g id="nature_ic" transform="translate(137.000000, 354.000000)">
                <path d="M7.27790577,12.4877346 C5.68384208,12.4877346 4.1457541,13.0326403 2.97111948,13.9993641 L11.585936,13.9993641 C10.4099797,13.0327168 8.87165848,12.4877346 7.27790577,12.4877346 Z M8.53595974,7.02766173 C8.62583184,8.35454497 9.81251679,9.40893712 11.263065,9.40893712 C12.7703663,9.40893712 13.9977892,8.26802408 13.9977892,6.86563586 C13.9977892,5.47082109 12.7824167,4.33518651 11.2846778,4.32409409 C10.9444699,5.6129571 9.89080503,6.64019193 8.53595974,7.02766173 Z M9.16560868,9.15840137 C8.99309466,9.01504137 8.87158074,8.94045439 8.73894941,8.76802459 L8.09670594,9.18854216 L7.74024954,7.22778433 C7.56688035,7.24583821 7.35160711,7.26205609 7.17264035,7.26205609 C6.93427714,7.26205609 6.73190941,7.22778433 6.50699592,7.20636448 L6.08818881,9.54824265 L5.29597709,9.02598079 C5.1466308,9.18609417 5.04470837,9.26458263 4.88976451,9.3977682 L5.89763818,10.6730143 L5.64077189,12.1226027 C6.15590386,11.9992091 6.70244443,11.9533094 7.245642,11.9533094 C7.75020078,11.9533094 8.14560694,11.9767182 8.59310161,12.0615561 L8.28414681,10.2782006 L9.16560868,9.15840137 Z M2.76222126,4.5379866 C1.24722325,4.5379866 0.0139696312,5.66604773 0.0139696312,7.05214156 C0.0139696312,8.43869439 1.24722325,9.56675552 2.76222126,9.56675552 C4.27807445,9.56675552 5.51070612,8.43869439 5.51070612,7.05214156 C5.51070612,5.66604773 4.27807445,4.5379866 2.76222126,4.5379866 Z M1.96511167,5.92193844 C1.46055289,6.19901951 1.15999445,6.68517362 1.15999445,7.22281187 C1.15999445,7.32991112 1.06514672,7.41666152 0.94829744,7.41666152 C0.83113718,7.41666152 0.735978482,7.32983462 0.735978482,7.22281187 C0.735978482,6.54785708 1.11381449,5.93716184 1.74633996,5.58962476 C1.8474072,5.53362715 1.9777062,5.56392094 2.0377246,5.6557968 C2.09743202,5.74751966 2.06524599,5.86647633 1.96511167,5.92193844 Z" id="Shape"></path>
                <path d="M7.21081267,0.00577570971 C5.19273302,0.00577570971 3.55062351,1.50807223 3.55062351,3.35469285 C3.55062351,3.63659338 3.59307176,3.90923748 3.6648295,4.17140115 C4.85734525,4.46332312 5.77433614,5.37374327 5.97701484,6.50364038 C6.36363592,6.6307825 6.77801163,6.70368649 7.21089041,6.70368649 C9.22959202,6.70368649 10.8722457,5.20116047 10.8722457,3.35469285 C10.872168,1.50807223 9.22951427,0.00577570971 7.21081267,0.00577570971 Z M5.91925102,1.5262791 C5.41469223,1.80427816 5.11327861,2.29165626 5.11327861,2.82990651 C5.11327861,2.93723526 5.01866412,3.02406216 4.90158161,3.02406216 C4.78442134,3.02406216 4.68895167,2.93723526 4.68895167,2.82990651 C4.68895167,2.16413165 5.07673892,1.53714203 5.70079028,1.19365942 C5.80123557,1.13835031 5.93215653,1.1679556 5.9924859,1.26013746 C6.05281527,1.35178382 6.02031826,1.47127599 5.91925102,1.5262791 Z" id="Shape"></path>
            </g>
        </g>
    </g>
</svg>