<?xml version="1.0" encoding="UTF-8"?>
<svg width="58px" height="58px" viewBox="0 0 58 58" version="1.1" xmlns="http://www.w3.org/2000/svg" xmlns:xlink="http://www.w3.org/1999/xlink">
    <!-- Generator: Sketch 52.2 (67145) - http://www.bohemiancoding.com/sketch -->
    <title>next_page_btn</title>
    <desc>Created with Sketch.</desc>
    <g id="Page-1" stroke="none" stroke-width="1" fill="none" fill-rule="evenodd">
        <g id="首页" transform="translate(-1044.000000, -2209.000000)">
            <g id="next_page_btn" transform="translate(1073.000000, 2238.000000) scale(-1, 1) translate(-1073.000000, -2238.000000) translate(1044.000000, 2209.000000)">
                <circle id="Oval" fill-opacity="0.6" fill="#141414" cx="29" cy="29" r="29"></circle>
                <g id="Group-2" transform="translate(21.000000, 22.000000)">
                    <path d="M-4.36956522,10.6304348 L2.69868174,4.53208632 C2.9498403,4.31539152 3.31102926,4.31539152 3.56218782,4.53208632 L10.6304348,10.6304348" id="Triangle" stroke="#FFFFFF" stroke-width="4" stroke-linecap="round" stroke-linejoin="round" transform="translate(3.130435, 7.500000) rotate(-90.000000) translate(-3.130435, -7.500000) "></path>
                    <path d="M2,5 L16,5 C17.1045695,5 18,5.8954305 18,7 L18,7 C18,8.1045695 17.1045695,9 16,9 L2,9 C0.8954305,9 1.3527075e-16,8.1045695 0,7 L0,7 C-1.3527075e-16,5.8954305 0.8954305,5 2,5 Z" id="Rectangle-4" fill="#FFFFFF"></path>
                </g>
            </g>
        </g>
    </g>
</svg>