<?xml version="1.0" encoding="UTF-8"?>
<svg width="12px" height="10px" viewBox="0 0 12 10" version="1.1" xmlns="http://www.w3.org/2000/svg" xmlns:xlink="http://www.w3.org/1999/xlink">
    <!-- Generator: Sketch 52.2 (67145) - http://www.bohemiancoding.com/sketch -->
    <title>piano_ic</title>
    <desc>Created with Sketch.</desc>
    <g id="Page-1" stroke="none" stroke-width="1" fill="none" fill-rule="evenodd" opacity="0.699999988">
        <g id="Music_播放" transform="translate(-138.000000, -285.000000)" fill="#FFFFFF">
            <g id="piano_ic" transform="translate(138.000000, 285.000000)">
                <polygon id="Path" points="4.89764151 5.09822647 4.89764151 0.00272851296 3.63254717 0.00272851296 3.63254717 5.09686221 3.17830189 5.09686221 3.17830189 9.99454297 5.70849057 9.99454297 5.70849057 5.09686221 4.89764151 5.09686221"></polygon>
                <polygon id="Path" points="8.36320755 5.09822647 8.36320755 0.00272851296 7.09811321 0.00272851296 7.09811321 5.09686221 6.28726415 5.09686221 6.28726415 9.99454297 8.81745283 9.99454297 8.81745283 5.09686221 8.36320755 5.09686221"></polygon>
                <path d="M1.78867925,5.09822647 L1.78867925,4.75579809 L1.78867925,4.30150068 L1.78867925,0.00272851296 L0.00990566038,0.00272851296 L0.00990566038,4.75443383 L0.00990566038,5.84038199 L0.00990566038,5.85948158 L0.00990566038,6.43110505 L0.00990566038,9.23328786 C0.00990566038,9.65484311 0.380660377,9.99590723 0.837735849,9.99590723 L1.33443396,9.99590723 L1.83113208,9.99590723 L2.65896226,9.99590723 L2.65896226,9.23328786 L2.65896226,8.31923602 L2.65896226,6.43110505 L2.65896226,5.85948158 L2.65896226,5.09686221 L1.78867925,5.09686221 L1.78867925,5.09822647 Z" id="Path"></path>
                <path d="M10.2070755,0.00272851296 L10.2070755,4.75443383 L10.1971698,4.75443383 L10.1971698,5.09686221 L9.33679245,5.09686221 L9.33679245,5.85948158 L9.33679245,6.43110505 L9.33679245,8.31923602 L9.33679245,9.23328786 L9.33679245,9.99590723 L10.1646226,9.99590723 L10.6613208,9.99590723 L11.1580189,9.99590723 C11.6150943,9.99590723 11.9858491,9.65484311 11.9858491,9.23328786 L11.9858491,6.43110505 L11.9858491,5.85948158 L11.9858491,5.84038199 L11.9858491,4.75443383 L11.9858491,0.00272851296 L10.2070755,0.00272851296 Z" id="Path"></path>
            </g>
        </g>
    </g>
</svg>