<?xml version="1.0" encoding="UTF-8"?>
<svg width="14px" height="14px" viewBox="0 0 14 14" version="1.1" xmlns="http://www.w3.org/2000/svg" xmlns:xlink="http://www.w3.org/1999/xlink">
    <!-- Generator: Sketch 52.2 (67145) - http://www.bohemiancoding.com/sketch -->
    <title>rain_ic</title>
    <desc>Created with Sketch.</desc>
    <g id="Page-1" stroke="none" stroke-width="1" fill="none" fill-rule="evenodd" opacity="0.699999988">
        <g id="Music_播放" transform="translate(-137.000000, -320.000000)" fill="#FFFFFF">
            <g id="rain_ic" transform="translate(137.000000, 320.000000)">
                <path d="M1.84688,12.5159429 C1.5688256,12.3493935 1.47345199,11.9830404 1.63333333,11.6956586 L2.41108,10.3087562 C2.57275623,10.0223563 2.92876991,9.92417017 3.20786667,10.089008 C3.48553333,10.2539873 3.58204,10.6235333 3.42141333,10.9092924 L2.64366667,12.2961947 C2.48188986,12.5824594 2.12599813,12.6806118 1.84688,12.5159429 Z M4.56941333,13.9027492 C4.29135893,13.7361997 4.19598533,13.3698466 4.35586667,13.0824648 L5.91145333,10.3087562 C6.07329997,10.0225245 6.42918004,9.92438674 6.70833333,10.089008 C6.986,10.2539873 7.08241333,10.6235333 6.92188,10.9092924 L5.36629333,13.683001 C5.20474875,13.9696392 4.84850238,14.067878 4.56941333,13.9027492 Z M8.84604,12.5159429 C8.56797568,12.3493952 8.47263488,11.983008 8.63258667,11.6956586 L9.41033333,10.3087562 C9.57211014,10.0224916 9.92800187,9.92433918 10.20712,10.089008 C10.48488,10.2539873 10.5812933,10.6235333 10.4206667,10.9092924 L9.64282667,12.2961947 C9.48104986,12.5824594 9.12515813,12.6806118 8.84604,12.5159429 Z" id="Shape" fill-rule="nonzero"></path>
                <path d="M6.80558667,0 C4.66470667,0 2.87746667,1.54976772 2.4388,3.61839871 C0.943693333,3.78357019 -0.138226667,5.16528386 0.0222133333,6.70438606 C0.170333333,8.12568708 1.33373333,9.20453834 2.72225333,9.20828568 L10.88892,9.20828568 C12.6070933,9.20828568 14,7.77430134 14,6.00536193 C14,4.24814499 12.6252933,2.82328879 10.9227067,2.80407164 C10.2417467,1.15581598 8.65508,0 6.80558667,0 Z" id="Path"></path>
            </g>
        </g>
    </g>
</svg>