<?xml version="1.0" encoding="UTF-8"?>
<svg width="40px" height="40px" viewBox="0 0 40 40" version="1.1" xmlns="http://www.w3.org/2000/svg" xmlns:xlink="http://www.w3.org/1999/xlink">
    <!-- Generator: Sketch 52.2 (67145) - http://www.bohemiancoding.com/sketch -->
    <title>random_btn</title>
    <desc>Created with Sketch.</desc>
    <g id="Page-1" stroke="none" stroke-width="1" fill="none" fill-rule="evenodd">
        <g id="Music_播放列表" transform="translate(-224.000000, -698.000000)">
            <g id="random_btn" transform="translate(224.000000, 698.000000)">
                <circle id="Oval" fill-opacity="0.4" fill="#000000" cx="20" cy="20" r="20"></circle>
                <g id="随机播放" transform="translate(7.000000, 10.000000)" fill="#FFFFFF" fill-opacity="0.7" fill-rule="nonzero">
                    <path d="M13.7478126,6.3586711 C12.3178544,7.72517852 12.2840554,8.84847268 12.2463565,10.1485352 C12.2255571,10.8330426 12.2047578,11.5413699 11.9655648,12.2710096 C11.4637794,13.7979876 10.2223158,15.1720171 8.46866712,16.137348 C7.01998952,16.9332237 5.30874128,17.4545024 3.48463467,17.5843415 C4.04561158,17.6010154 2.70155926,17.7530236 1.32069634,17.7530236 C1.19574833,17.7530236 1.07106032,17.75177 0.946718955,17.7493044 C0.431305709,17.7439345 0.000671647007,17.3251229 0.000671647007,16.8093395 C0.000671647007,16.2900249 0.437220536,15.8690194 0.975708107,15.8690194 C0.979369666,15.8690194 0.983031226,15.8690403 0.986649453,15.8690821 C3.57823193,15.896663 5.83236595,15.4265343 7.50151709,14.5063357 C8.82877824,13.7754423 9.75435115,12.7800232 10.1079408,11.703115 C10.2639362,11.2254643 10.2808357,10.7014275 10.2977352,10.094648 C10.340634,8.68050092 10.3913325,6.92159276 12.3750744,5.02478017 C14.3562164,3.13172862 16.9301411,2.25039402 20.4777373,2.25039402 L20.6337327,2.25039402 L20.6337327,0.585511591 C20.6337327,0.0514453909 21.0185214,-0.155411236 21.4891077,0.125412306 L25.6437861,2.60769183 C26.1143723,2.88976905 26.1195721,3.35613672 25.6541857,3.64698967 L21.478708,6.24586111 C21.0146216,6.53671406 20.6337327,6.33612582 20.6337327,5.80205962 L20.6337327,4.12965513 L20.4777373,4.12965513 C17.4358263,4.12965513 15.361087,4.81666987 13.7478343,6.358692 L13.7478126,6.3586711 Z M0.986086136,4.13088791 C0.9827929,4.1309297 0.97891468,4.1309506 0.97503646,4.1309506 C0.436548889,4.1309506 0,3.70994513 0,3.19063052 C0,2.67505605 0.430265739,2.25639077 0.9634018,2.25037312 C2.93212917,2.2303143 4.7247767,2.46600549 6.29383077,2.9511783 C7.73418861,3.39623347 8.96005273,4.0406232 9.941524,4.86679604 C10.1632108,5.0405765 10.3036934,5.30351425 10.3036934,5.59810734 C10.3036934,6.11740106 9.86718785,6.53836474 9.32872194,6.53836474 C9.06890288,6.53836474 8.83280812,6.44034813 8.65804991,6.28056706 C6.97115428,4.85929487 4.24513407,4.09580587 0.986129469,4.13090881 L0.986086136,4.13088791 Z M25.6437644,16.2288664 C26.1143506,16.5096899 26.1195505,16.9773113 25.6541641,17.2669106 L21.4786863,19.8670357 C21.0145999,20.156635 20.633711,19.9573004 20.633711,19.4232342 L20.633711,17.7508297 L20.4777156,17.7508297 C17.2551099,17.7508297 14.656486,16.7629326 12.5336481,14.7332303 C12.3743161,14.5663869 12.2766457,14.3427519 12.2766457,14.0971148 C12.2766457,13.5778211 12.7131512,13.1568574 13.2516171,13.1568574 C13.5034197,13.1568574 13.732928,13.2489191 13.905953,13.4000498 C15.669178,15.0855343 17.7582169,15.8715895 20.4777373,15.8715895 L20.6337327,15.8715895 L20.6337327,14.2067071 C20.6337327,13.6726409 21.0185214,13.4657842 21.4891077,13.7466078 L25.6437861,16.2288873 L25.6437644,16.2288664 Z" id="Shape"></path>
                </g>
            </g>
        </g>
    </g>
</svg>