<?xml version="1.0" encoding="UTF-8"?>
<svg width="74px" height="96px" viewBox="0 0 74 96" version="1.1" xmlns="http://www.w3.org/2000/svg" xmlns:xlink="http://www.w3.org/1999/xlink">
    <!-- Generator: Sketch 52.2 (67145) - http://www.bohemiancoding.com/sketch -->
    <title>relax_ic</title>
    <desc>Created with Sketch.</desc>
    <g id="Page-1" stroke="none" stroke-width="1" fill="none" fill-rule="evenodd">
        <g id="FM-选择" transform="translate(-563.000000, -336.000000)" fill="#FFFFFF" fill-rule="nonzero">
            <g id="relax_ic" transform="translate(563.000000, 336.000000)">
                <path d="M22,15 C22,23.2842712 28.7157288,30 37,30 C45.2842712,30 52,23.2842712 52,15 C52,6.71572875 45.2842712,0 37,0 C28.7157288,0 22,6.71572875 22,15 Z M72.0457434,64.1580995 L64.9057549,57.9780872 C64.7155243,57.7329511 64.5379758,57.5007168 64.3477452,57.2555806 L53.3397345,34.4192095 C52.9212272,33.5547819 52.0588485,33 51.0950135,33 L22.9028388,33 C21.9516858,33 21.0893071,33.5547819 20.6581178,34.4192095 L9.65010715,57.2555806 C9.45987655,57.5007168 9.28232799,57.7329511 9.09209739,57.9780872 L1.95210894,64.1580995 C-0.381386396,66.1836985 -0.660391273,69.7446242 1.31800695,72.1185746 C3.30908721,74.4925251 6.80933022,74.776367 9.14282555,72.7636699 L18.0456176,65.0612328 C18.2358481,64.8160967 18.4133967,64.5838624 18.6036273,64.3387262 L21.3429479,58.6489863 L21.3429479,71.796027 C21.3429479,72.4669261 21.0766251,73.1120213 20.6200716,73.5893918 L10.3603014,84.0528364 C6.03572578,88.4652877 9.10477943,95.9870981 15.2302047,95.9870981 L27.8234703,95.9870981 C25.6421594,93.5486381 24.5895501,90.052222 25.7055696,86.2977678 C26.9610916,82.078845 31.0447084,79.3823469 35.369284,79.3823469 L44.8174037,79.3823469 C45.6797825,79.3823469 46.3772946,80.0919517 46.3772946,80.9692812 C46.3772946,81.8466107 45.6797825,82.5562154 44.8174037,82.5562154 L35.026869,82.5562154 C31.3617594,82.5562154 28.368798,85.6010649 28.368798,89.3297153 C28.368798,92.8648372 31.0827545,95.7032562 34.4942233,96 L58.7803296,96 C64.9057549,96 67.9748086,88.4781896 63.650233,84.0657383 L53.3904627,73.6022937 C52.9212272,73.1249232 52.6675864,72.479828 52.6675864,71.8089289 L52.6675864,58.6360844 L55.406907,64.3258243 C55.5971376,64.5709605 55.7746862,64.8031948 55.9649168,65.0483309 L64.8677088,72.750768 C67.2012041,74.7634651 70.7014471,74.4796232 72.6925274,72.1056727 C74.6582436,69.7446242 74.3792387,66.1836985 72.0457434,64.1580995 Z" id="Shape"></path>
            </g>
        </g>
    </g>
</svg>