<?xml version="1.0" encoding="UTF-8"?>
<svg width="12px" height="13px" viewBox="0 0 12 13" version="1.1" xmlns="http://www.w3.org/2000/svg" xmlns:xlink="http://www.w3.org/1999/xlink">
    <!-- Generator: Sketch 52.2 (67145) - http://www.bohemiancoding.com/sketch -->
    <title>relax_music_ic</title>
    <desc>Created with Sketch.</desc>
    <g id="Page-1" stroke="none" stroke-width="1" fill="none" fill-rule="evenodd" opacity="0.699999988">
        <g id="Music_播放" transform="translate(-138.000000, -247.000000)" fill="#FFFFFF">
            <g id="relax_music_ic" transform="translate(138.000000, 247.000000)">
                <path d="M1.08833753,1.55453994 C1.07021532,2.13764596 1.37968124,2.68416295 1.89602907,2.98092365 C2.4123769,3.27768436 3.05382145,3.27768436 3.57016929,2.98092365 C4.08651712,2.68416295 4.39598304,2.13764596 4.37786082,1.55453994 C4.35098532,0.689785232 3.62253068,0.00231414293 2.73309918,0.00231414293 C1.84366767,0.00231414293 1.11521304,0.689785232 1.08833753,1.55453994 Z" id="Path" opacity="0.5"></path>
                <path d="M1.7413507,9.82154231 C1.51888216,10.0310442 1.3805758,10.3245988 1.38054152,10.6495788 C1.38049808,11.0613809 1.60633299,11.4419198 1.97296625,11.6478331 C2.3395995,11.8537463 2.79132284,11.8537463 3.15795609,11.6478331 C3.52458935,11.4419198 3.75042426,11.0613809 3.75038082,10.6495788 C3.75037077,10.5543145 3.73847894,10.4617506 3.71606833,10.3732127 C3.59694091,9.86570517 3.13010007,9.48694941 2.57222355,9.48677571 C2.25649175,9.48667743 1.95877298,9.6099169 1.7413507,9.82154231 Z M8.80824219,8.14370487 C8.16546229,8.1567474 7.64851852,8.66766269 7.64851852,9.29602046 C7.64851852,9.93256784 8.17902512,10.4485914 8.83343818,10.4485914 C9.21768799,10.4485914 9.55921917,10.2706845 9.77572171,9.99493343 C9.93528345,9.800033 10.0306672,9.55320308 10.0307555,9.28469209 C10.030963,8.65419939 9.50567066,8.14292045 8.85748221,8.14271861 C8.84101692,8.14271349 8.82460064,8.14304389 8.80824219,8.14370487 Z M11.9411285,6.66199013 C11.9411285,6.86882436 12.0493266,8.19972593 11.9591616,8.9949049 C11.8291735,10.1423598 10.8974675,11.4169849 9.4074893,11.5748514 C8.06628348,11.7173697 6.74987306,11.1611829 6.39822918,9.89386642 C6.04812981,8.62184045 6.82044864,7.31371291 8.12639354,6.96676001 C8.60861304,6.83943609 9.11946698,6.85985344 9.58932225,7.02522905 C9.92218173,7.13997454 10.2813394,6.90609837 10.2828421,6.56259276 L10.2828421,5.07894082 C10.298621,4.01334253 9.12121512,4.4547838 9.12121512,4.4547838 L6.12773389,5.38955761 C6.12773389,5.38955761 5.36659019,5.68044109 5.46426904,6.94044894 L5.4717828,7.98777564 C5.4717828,8.33932076 5.4687773,10.0517328 5.5093516,10.4018162 C5.64234511,11.5521946 4.43112731,12.8151259 3.24395353,12.990533 L2.88404451,12.990533 C1.84038352,13.0241527 0.44507864,12.3510279 0.0934347568,11.0837114 C-0.256664612,9.81168544 0.515654215,8.5035579 1.82159911,8.156605 C2.35732287,8.01564109 2.92647715,8.056898 3.43480299,8.27354309 C3.67900012,8.37659478 4.00509722,8.20922714 4.00735135,7.94977077 L4.00735135,7.78459573 L3.99382659,4.75589937 C3.9592633,3.60552095 4.45592272,2.98867257 5.06228299,2.81911235 L9.06937018,1.61611181 C11.0507482,0.991954795 11.989968,2.19860965 11.9298579,3.52658776 L11.9411285,6.66199013 Z" id="Combined-Shape" fill-rule="nonzero"></path>
            </g>
        </g>
    </g>
</svg>