<?xml version="1.0" encoding="UTF-8"?>
<svg width="40px" height="40px" viewBox="0 0 40 40" version="1.1" xmlns="http://www.w3.org/2000/svg" xmlns:xlink="http://www.w3.org/1999/xlink">
    <!-- Generator: Sketch 52.2 (67145) - http://www.bohemiancoding.com/sketch -->
    <title>sequence_btn</title>
    <desc>Created with Sketch.</desc>
    <g id="Page-1" stroke="none" stroke-width="1" fill="none" fill-rule="evenodd">
        <g id="FM-播放" transform="translate(-273.000000, -697.000000)">
            <g id="sequence_btn" transform="translate(273.000000, 697.000000)">
                <circle id="Oval" fill-opacity="0.4" fill="#000000" cx="20" cy="20" r="20"></circle>
                <g id="顺序" transform="translate(11.000000, 12.000000)" fill="#FFFFFF" fill-opacity="0.7">
                    <path d="M14,14 L1,14 C0.44771525,14 6.76353751e-17,13.5522847 0,13 C-6.76353751e-17,12.4477153 0.44771525,12 1,12 L14,12 C14.0025236,12 14.005045,12.0000093 14.0075641,12.000028 L14.0075643,10.8959372 C14.0075643,10.3439074 14.4160363,10.00002 14.7942511,10.00002 C14.9359411,9.99888589 15.074981,10.045964 15.1951588,10.135765 L18.6217852,12.1719405 C18.8638427,12.3529338 19,12.6153742 19,12.8959139 C19,13.1764537 18.8638427,13.438894 18.6293495,13.6108377 L15.1119516,15.8913542 C15.0171603,15.96382 14.9067343,16.0015657 14.7942511,15.9999502 C14.3782148,15.9999502 14,15.4931688 14,14.941139 L14,14 Z" id="Combined-Shape" fill-rule="nonzero"></path>
                    <rect id="Rectangle-Copy-11" x="0" y="6" width="19" height="2" rx="1"></rect>
                    <rect id="Rectangle-Copy-12" x="0" y="0" width="19" height="2" rx="1"></rect>
                </g>
            </g>
        </g>
    </g>
</svg>