<?xml version="1.0" encoding="UTF-8"?>
<svg width="40px" height="40px" viewBox="0 0 40 40" version="1.1" xmlns="http://www.w3.org/2000/svg" xmlns:xlink="http://www.w3.org/1999/xlink">
    <!-- Generator: Sketch 52.2 (67145) - http://www.bohemiancoding.com/sketch -->
    <title>single_cycle_btn</title>
    <desc>Created with Sketch.</desc>
    <g id="Page-1" stroke="none" stroke-width="1" fill="none" fill-rule="evenodd">
        <g id="Music_播放" transform="translate(-224.000000, -698.000000)">
            <g id="single_cycle_btn" transform="translate(224.000000, 698.000000)">
                <circle id="Oval" fill-opacity="0.4" fill="#000000" cx="20" cy="20" r="20"></circle>
                <g id="顺序" transform="translate(7.000000, 10.000000)" fill="#FFFFFF">
                    <path d="M2.39095199,15.5705133 C0.862213392,14.0384153 0.00128264292,11.9498487 0,9.77020643 C0,7.72583598 0.83605184,5.83201994 2.49252838,4.15214965 C4.0318014,2.5832142 5.97737997,1.75120297 8.10267062,1.75120297 L16.9476302,1.75120297 L16.9476302,0.784485156 C16.9476302,0.30112625 17.3695629,1.74218742e-05 17.7602414,1.74414055e-05 C17.9066005,-0.000975600427 18.0502224,0.0402461467 18.1743605,0.118876172 L21.7139071,1.90175738 C21.9639413,2.0602357 22.1045855,2.2900293 22.1045855,2.5356707 C22.1045855,2.78131211 21.9639413,3.01110568 21.7217207,3.1616601 L18.0884113,5.15848705 C17.9904963,5.22193827 17.8764313,5.25498851 17.7602414,5.25357404 C17.3304951,5.25357404 16.9398167,4.80983473 16.9398167,4.32647582 L16.9398167,3.18543186 L8.02453494,3.18543186 C4.64125975,3.18543186 1.44551019,6.3866941 1.44551019,9.7622825 C1.44551019,11.4025332 2.21905349,13.1220231 3.5786144,14.4690889 L3.66456366,14.556252 L2.53940979,15.7210677 L2.39095199,15.5705133 Z M8.21987415,19.9999826 C8.07351502,20.0009756 7.92989314,19.9597539 7.80575501,19.8811238 L4.26620844,18.0982426 C4.01617424,17.9397643 3.87553001,17.7099707 3.87553001,17.4643293 C3.87553001,17.2186879 4.01617424,16.9888943 4.25839488,16.8383399 L7.89170427,14.8415129 C7.98961925,14.7780617 8.10368421,14.7450115 8.21987415,14.746426 C8.64962043,14.746426 9.04029886,15.1901653 9.04029886,15.6735242 L9.04029886,16.8145681 L17.9633942,16.8145681 C21.3466694,16.8145681 24.5424189,13.6133059 24.5424189,10.2377175 C24.5424189,8.70047771 23.8391977,7.06022699 22.6202811,5.74485686 L22.5108911,5.63392203 L22.6437217,5.55468287 L23.9095199,4.78606297 L23.979842,4.86530213 C25.2781812,6.34770947 25.9929935,8.26293151 25.9879291,10.2456414 C25.9879291,12.2900119 25.1518773,14.1838279 23.4954007,15.8636982 C21.9483142,17.4326336 20.0105491,18.2646449 17.8852585,18.2646449 L9.03248528,18.2646449 L9.03248528,19.2313627 C9.03248528,19.6988737 8.61055258,19.9999826 8.21987415,19.9999826 Z" id="Shape" fill-opacity="0.7" fill-rule="nonzero"></path>
                    <text id="1" font-family="Roboto-Bold, Roboto" font-size="10" font-weight="bold" letter-spacing="0.170454159">
                        <tspan x="10" y="14">1</tspan>
                    </text>
                </g>
            </g>
        </g>
    </g>
</svg>