<?xml version="1.0" encoding="UTF-8"?>
<svg width="85px" height="86px" viewBox="0 0 85 86" version="1.1" xmlns="http://www.w3.org/2000/svg" xmlns:xlink="http://www.w3.org/1999/xlink">
    <!-- Generator: Sketch 52.2 (67145) - http://www.bohemiancoding.com/sketch -->
    <title>sleep_ic</title>
    <desc>Created with Sketch.</desc>
    <g id="Page-1" stroke="none" stroke-width="1" fill="none" fill-rule="evenodd">
        <g id="FM-选择" transform="translate(-874.000000, -341.000000)" fill="#FFFFFF" fill-rule="nonzero">
            <g id="sleep_ic" transform="translate(874.000000, 341.000000)">
                <path d="M68.9201619,12.4248722 L71.826902,11.4297938 C71.978289,11.3777374 72.1447751,11.4187987 72.2580369,11.5361267 C72.3712987,11.6534548 72.4122629,11.8272916 72.3641182,11.986297 L69.9219724,20.0999383 C69.9072312,20.1530536 69.9021775,20.2085998 69.9070756,20.263673 C69.9093379,20.3396606 69.9046614,20.4157008 69.8931099,20.4907575 C69.8502016,20.7200161 69.8588077,20.9565785 69.9182482,21.1817571 C70.1417003,21.9003707 70.6894685,22.1456479 71.5615526,21.9175888 L71.5960014,21.9068681 L78.9820262,19.3787257 L79.0174061,19.3650812 C79.8367306,19.014221 80.143667,18.3901447 79.9382151,17.4928523 C79.931972,17.4672321 79.9238796,17.4421449 79.9140078,17.4178072 C79.573864,16.5679459 78.9742674,16.2544459 78.115218,16.4773071 L78.078907,16.4880278 L74.6498475,17.6624347 C74.4987045,17.7142803 74.3325571,17.6735558 74.2191156,17.5568577 C74.1056741,17.4401595 74.0638813,17.2669744 74.1107692,17.1078808 L76.5594324,8.81003792 C76.6940208,8.45481481 76.7062016,8.06161053 76.5938813,7.69800613 C76.4076712,7.10349308 75.9663532,6.88875366 75.2699272,7.05378789 C75.2554226,7.05711369 75.241121,7.06134455 75.2270989,7.06645782 L68.0179739,9.53417428 L67.9825939,9.54781889 C67.1632694,9.90062829 66.856333,10.5247045 67.0617849,11.4200477 C67.0675734,11.4453692 67.0753589,11.4701443 67.0850611,11.4941181 C67.4239635,12.3452789 68.0238705,12.6591038 68.884782,12.4355929 L68.9201619,12.4248722 Z M56.677042,63.9852362 C38.5393936,64.5303928 23.5369071,49.6188685 23.8821766,31.3806389 C24.1279779,18.382451 32.0825667,7.28317732 43.3406483,2.50752822 C44.6423431,1.95564129 44.259773,0 42.8500021,0 L42.7792267,0 C19.2999432,0 0.240300886,19.0131789 0.00215098053,42.5577921 C-0.235998925,66.5225701 19.3324617,86.2155123 43.1713611,85.9982189 C64.2366272,85.8059237 81.6636516,70.3069379 84.9805344,50.0284572 C85.20912,48.6295102 83.3641757,47.9132109 82.6085998,49.1131324 C77.1273267,57.8048713 67.5927234,63.657373 56.677042,63.9852362 Z M54.3844129,32.4116764 L60.1377092,30.4813502 C60.2910409,30.4298681 60.4595809,30.4706593 60.5742633,30.5870079 C60.6889456,30.7033564 60.7304917,30.8757037 60.6818764,31.0334235 L56.1553097,45.7579519 C56.1366664,45.8220648 56.1315318,45.8895085 56.1402463,45.9558104 C56.1506414,46.0993041 56.1436845,46.243565 56.119534,46.3853079 C56.0479826,46.8727153 56.0639875,47.2703625 56.1637829,47.5830753 C56.5623367,48.8307095 57.5351845,49.2544161 59.0823263,48.8541952 C59.0935734,48.8520115 59.1046029,48.8487809 59.1152776,48.8445435 L72.2138887,44.4530513 L72.24684,44.4405042 C73.7174093,43.8292342 74.2628317,42.7353827 73.8831072,41.1589497 C73.8773211,41.1353423 73.8700888,41.1121323 73.8614535,41.0894579 C73.2589155,39.5895945 72.1884691,39.0375212 70.6501143,39.433238 L70.6152801,39.4438548 L63.9402888,41.6811029 C63.7875767,41.7319618 63.6199465,41.6914118 63.5055203,41.575932 C63.391094,41.4604521 63.3489141,41.2892599 63.3961217,41.1319251 L67.9151567,26.1410116 C68.1545425,25.5245806 68.1761896,24.8417505 67.9763519,24.2106854 C67.6462113,23.1741002 66.8594599,22.8031559 65.6160977,23.0978523 L65.5746732,23.1094343 L52.7867458,27.4024798 L52.752853,27.415027 C51.2829114,28.0288707 50.737489,29.1227222 51.1165858,30.6965815 C51.1222706,30.7200206 51.1298279,30.7429402 51.139181,30.7651081 C51.7392084,32.2656151 52.8096548,32.8176884 54.3505201,32.421328 L54.3844129,32.4116764 Z" id="Shape"></path>
            </g>
        </g>
    </g>
</svg>