<?xml version="1.0" encoding="UTF-8"?>
<svg width="12px" height="14px" viewBox="0 0 12 14" version="1.1" xmlns="http://www.w3.org/2000/svg" xmlns:xlink="http://www.w3.org/1999/xlink">
    <!-- Generator: Sketch 52.2 (67145) - http://www.bohemiancoding.com/sketch -->
    <title>spa_ic</title>
    <desc>Created with Sketch.</desc>
    <g id="Page-1" stroke="none" stroke-width="1" fill="none" fill-rule="evenodd" opacity="0.699999988">
        <g id="Music_播放" transform="translate(-138.000000, -391.000000)" fill="#FFFFFF" fill-rule="nonzero">
            <g id="spa_ic" transform="translate(138.000000, 391.000000)">
                <path d="M7.51304348,11.2250559 C7.6173913,11.3252796 7.82608696,11.4255034 8.03478261,11.5257271 C8.86956522,11.8263982 10.1217391,12.2272931 10.1217391,12.2272931 C10.1217391,12.2272931 12,10.4232662 12,6.81521253 C12,6.71498881 10.3304348,6.81521253 10.3304348,6.71498881 C10.3304348,6.6147651 12,6.6147651 12,6.51454139 C12,6.11364653 11.8956522,5.51230425 11.7913043,5.1114094 C11.7913043,5.1114094 11.2695652,2.50559284 9.1826087,1.00223714 C7.82608696,0 7.09565217,0 6.36521739,0 C5.73913043,0 4.59130435,0.400894855 3.96521739,0.902013423 C3.44347826,1.40313199 2.29565217,2.9064877 1.46086957,5.61252796 C0.626086957,8.21834452 -3.11608378e-14,11.3252796 -3.11608378e-14,11.3252796 L-3.11608378e-14,11.7261745 C-3.11608378e-14,11.9266219 0.417391304,11.3252796 0.417391304,11.3252796 L1.14782609,10.1225951 L1.25217391,9.82192394 L1.35652174,9.72170022 L1.35652174,10.0223714 L1.25217391,10.2228188 L0.208695652,12.0268456 C0.208695652,12.0268456 0.208695652,12.4277405 0.417391304,12.6281879 C0.626086957,12.9288591 1.04347826,13.2295302 1.66956522,13.5302013 C2.19130435,13.8308725 3.23478261,13.9310962 3.23478261,13.9310962 L3.33913043,12.9288591 L3.75652174,13.9310962 C3.75652174,13.9310962 4.69565217,14.1315436 6.67826087,13.8308725 C8.66086957,13.5302013 9.91304348,12.4277405 9.91304348,12.4277405 C9.91304348,12.4277405 8.45217391,11.8263982 7.72173913,11.4255034 C7.30434783,11.2250559 7.40869565,11.1248322 7.40869565,11.0246085 C7.30434783,11.1248322 7.30434783,11.0246085 7.51304348,11.2250559 Z M2.4,4.71051454 C2.4,4.51006711 2.60869565,4.20939597 2.71304348,4.20939597 C2.8173913,4.10917226 3.13043478,3.90872483 3.44347826,3.90872483 C3.75652174,3.90872483 4.06956522,3.90872483 4.27826087,4.20939597 C4.48695652,4.4098434 4.48695652,4.91096197 4.27826087,5.31185682 C4.06956522,5.61252796 3.96521739,5.61252796 3.96521739,5.61252796 C3.96521739,5.61252796 3.75652174,5.71275168 3.44347826,5.61252796 C3.13043478,5.61252796 2.8173913,5.51230425 2.8173913,5.51230425 C2.60869565,5.41208054 2.4,5.21163311 2.4,5.21163311 L2.4,4.71051454 Z M4.17391304,10.7239374 C2.71304348,10.7239374 2.29565217,10.1225951 2.19130435,10.0223714 C2.08695652,9.92214765 1.87826087,9.42102908 1.9826087,9.22058166 C1.9826087,9.12035794 2.08695652,9.12035794 2.08695652,9.12035794 C2.08695652,9.12035794 2.50434783,8.91991051 3.23478261,9.02013423 C3.96521739,9.12035794 4.59130435,9.22058166 4.90434783,9.42102908 C5.2173913,9.5212528 5.73913043,9.82192394 5.63478261,10.1225951 C5.63478261,10.1225951 5.63478261,10.8241611 4.17391304,10.7239374 Z M5.32173913,8.61923937 C5.32173913,8.61923937 5.00869565,8.71946309 4.69565217,8.61923937 C4.3826087,8.51901566 4.06956522,8.31856823 3.75652174,8.31856823 C3.44347826,8.21834452 3.13043478,8.21834452 2.92173913,8.21834452 C2.71304348,8.11812081 2.60869565,8.01789709 2.60869565,7.71722595 C2.60869565,7.3163311 2.92173913,6.91543624 3.02608696,6.91543624 L3.23478261,6.71498881 C3.33913043,6.71498881 3.44347826,6.71498881 3.33913043,6.81521253 C3.23478261,6.91543624 3.13043478,7.01565996 3.02608696,7.21610738 C3.02608696,7.41655481 2.8173913,7.61700224 2.92173913,7.81744966 C3.02608696,8.01789709 3.54782609,8.01789709 3.54782609,8.01789709 C4.17391304,8.01789709 4.48695652,8.31856823 4.8,8.41879195 C5.11304348,8.41879195 5.2173913,8.41879195 5.42608696,8.21834452 C5.63478261,8.01789709 5.53043478,7.41655481 5.53043478,7.41655481 L5.53043478,7.11588367 C5.53043478,7.11588367 5.63478261,7.01565996 5.63478261,7.11588367 C5.73913043,7.21610738 5.73913043,7.81744966 5.73913043,7.81744966 C5.73913043,7.81744966 5.84347826,8.41879195 5.32173913,8.61923937 Z M5.73913043,6.01342282 C5.32173913,5.91319911 5.53043478,5.61252796 5.53043478,5.61252796 L5.63478261,5.31185682 L5.63478261,5.21163311 C5.73913043,5.1114094 6.15652174,4.61029083 6.7826087,4.51006711 C7.51304348,4.51006711 8.34782609,5.01118568 8.34782609,5.01118568 C9.07826087,5.41208054 9.07826087,5.81297539 9.07826087,5.81297539 C9.07826087,6.01342282 8.86956522,6.41431767 8.86956522,6.41431767 C8.66086957,6.71498881 8.24347826,6.6147651 8.24347826,6.6147651 C6.99130435,6.51454139 5.73913043,6.01342282 5.73913043,6.01342282 Z" id="Shape"></path>
            </g>
        </g>
    </g>
</svg>