<?xml version="1.0" encoding="UTF-8"?>
<svg width="12px" height="14px" viewBox="0 0 12 14" version="1.1" xmlns="http://www.w3.org/2000/svg" xmlns:xlink="http://www.w3.org/1999/xlink">
    <!-- Generator: Sketch 52.2 (67145) - http://www.bohemiancoding.com/sketch -->
    <title>trending_ic</title>
    <desc>Created with Sketch.</desc>
    <g id="Page-1" stroke="none" stroke-width="1" fill="none" fill-rule="evenodd" opacity="0.699999988">
        <g id="Music_播放" transform="translate(-138.000000, -176.000000)" fill="#FFFFFF" fill-rule="nonzero">
            <g id="trending_ic" transform="translate(138.000000, 176.000000)">
                <path d="M10.0979993,4.12930082 C9.6161562,3.6784078 9.37156915,3.61180619 9.29825969,3.63778082 C9.22561666,3.66109139 9.23228116,3.88021073 9.23228116,3.88021073 C9.14097754,6.64018211 7.56349104,7.05044813 7.56349106,7.05044813 C8.62647836,2.5108813 5.49283175,0.444232839 5.18026684,0.265740488 C4.86970128,0.0879141405 4.68576115,0 4.46050114,0 C4.23524113,0 4.19058901,0.534145046 4.19058901,0.534145046 C4.08062479,3.34806374 3.28088513,3.77697821 1.62542401,5.08436813 C0.000619585421,6.3611213 0.000619585421,8.38314666 0.000619585421,8.38314666 C0.000619585421,12.6929379 3.77739016,13.7872026 4.02530947,13.7678881 C4.27256232,13.7505717 4.13594012,13.4482003 4.13594012,13.4482003 C3.19158086,10.6003148 4.19058899,9.30757724 4.19058901,9.30757724 C4.5751305,11.8730719 6.55515262,13.5640871 6.55515262,13.5640871 C7.15229158,14.1861463 7.60947608,13.9377223 7.60947608,13.9377223 C7.91204426,13.8218355 11.0283632,13.0019694 11.8174396,9.85970471 C12.6038503,6.71943805 10.5825083,4.58019382 10.0979993,4.12930082 Z" id="Shape"></path>
            </g>
        </g>
    </g>
</svg>