<?xml version="1.0" encoding="UTF-8"?>
<svg width="38px" height="18px" viewBox="0 0 38 18" version="1.1" xmlns="http://www.w3.org/2000/svg" xmlns:xlink="http://www.w3.org/1999/xlink">
    <!-- Generator: Sketch 52.2 (67145) - http://www.bohemiancoding.com/sketch -->
    <title>unlimited_btn</title>
    <desc>Created with Sketch.</desc>
    <g id="Page-1" stroke="none" stroke-width="1" fill="none" fill-rule="evenodd">
        <g id="FM-播放" transform="translate(-763.000000, -709.000000)" fill="#FFFFFF">
            <g id="unlimited_btn" transform="translate(763.000000, 709.000000)">
                <path d="M9.30704898,18 C6.81003584,18 4.44922342,17.0814095 2.72401434,15.3754557 C0.953405018,13.6695018 0,11.4386391 0,9.0328068 C0,6.62697448 0.953405018,4.35236938 2.72401434,2.69015796 C4.49462366,0.984204131 6.81003584,0.0656136087 9.30704898,0.0656136087 C11.8040621,0.0656136087 14.1648746,0.984204131 15.8900836,2.69015796 L25.6057348,12.0510328 C26.4456392,12.8602673 27.557945,13.2976914 28.692951,13.2976914 C29.8733572,13.2976914 30.9402628,12.8383961 31.7801673,12.0510328 C32.6200717,11.2417983 33.0740741,10.1701094 33.0740741,9.07654921 C33.0740741,7.93924666 32.5973716,6.91130012 31.7801673,6.10206561 C30.9402628,5.29283111 29.827957,4.85540705 28.692951,4.85540705 C27.5125448,4.85540705 26.4456392,5.31470231 25.6057348,6.10206561 L24.7204301,6.95504253 L21.2246117,3.47752126 L22.1099164,2.62454435 C23.8805257,0.918590522 26.1959379,0 28.692951,0 C31.1899642,0 33.5507766,0.918590522 35.2759857,2.62454435 C37.046595,4.33049818 38,6.56136087 38,8.9671932 C38,11.3730255 37.046595,13.6476306 35.2759857,15.309842 C33.5053763,17.0157959 31.1899642,17.9343864 28.692951,17.9343864 C26.1959379,17.9343864 23.8351254,17.0157959 22.1099164,15.309842 L12.3942652,6.05832321 C11.5543608,5.2490887 10.442055,4.81166464 9.30704898,4.81166464 C8.12664277,4.81166464 7.05973716,5.2709599 6.21983274,6.05832321 C5.37992832,6.84568651 4.92592593,7.96111786 4.92592593,9.0328068 C4.92592593,10.1701094 5.40262843,11.1980559 6.21983274,12.0072904 C7.03703704,12.8165249 8.17204301,13.253949 9.30704898,13.253949 C10.442055,13.253949 11.5543608,12.7946537 12.3942652,12.0072904 L13.2795699,11.1543135 L16.7753883,14.5224787 L15.8900836,15.3754557 C14.1648746,17.1032807 11.8040621,18 9.30704898,18 Z" id="Path"></path>
            </g>
        </g>
    </g>
</svg>