<?xml version="1.0" encoding="UTF-8"?>
<svg width="32px" height="32px" viewBox="0 0 32 32" version="1.1" xmlns="http://www.w3.org/2000/svg" xmlns:xlink="http://www.w3.org/1999/xlink">
    <!-- Generator: Sketch 52.2 (67145) - http://www.bohemiancoding.com/sketch -->
    <title>voice_btn</title>
    <desc>Created with Sketch.</desc>
    <g id="Page-1" stroke="none" stroke-width="1" fill="none" fill-rule="evenodd" opacity="0.699999988">
        <g id="FM-播放" transform="translate(-1008.000000, -702.000000)" fill="#FFFFFF" fill-rule="nonzero">
            <g id="voice_btn" transform="translate(1008.000000, 702.000000)">
                <path d="M15.1529694,1.0275346 L8.88222355,7.99584893 L6.35072986,7.99584893 C2.85942811,7.99584893 0,10.9359815 0,14.5281436 L0,17.4762766 C0,21.0684386 2.85542892,24.0085713 6.35072986,24.0085713 L8.89422113,24.0085713 L15.1529694,30.9608849 C17.0765847,32.9209733 20,32.0569343 20,28.8007874 L20,3.18763205 C20,-0.100516282 17.0365927,-0.888551834 15.1529694,1.0275346 Z M29.5574111,6.93958898 C29.0111944,6.01506143 27.8456755,5.72415403 26.9532651,6.28604366 C26.0608547,6.85191828 25.7800531,8.05938318 26.3224232,8.98391074 C27.5571808,11.0800379 28.2111022,13.4909826 28.2111022,15.9577178 C28.2111022,18.4563332 27.545641,20.8911882 26.2839572,23.0032555 C25.7338939,23.923798 26.0070023,25.1352479 26.8955661,25.7051076 C27.2071405,25.9043592 27.5494876,26 27.8918347,26 C28.5265232,26 29.1458252,25.6692423 29.5035587,25.0714874 C31.1345157,22.337755 32,19.1895792 32,15.9617028 C32,12.7657067 31.1537487,9.64941117 29.5574111,6.93958898 Z" id="Shape"></path>
            </g>
        </g>
    </g>
</svg>